<svg xmlns="http://www.w3.org/2000/svg" width="800" height="450" viewBox="0 0 800 450">
  <defs>
    <linearGradient id="tealGrad" x1="0%" y1="0%" x2="100%" y2="100%">
      <stop offset="0%" style="stop-color:#083344"/>
      <stop offset="100%" style="stop-color:#0891b2"/>
    </linearGradient>
    <linearGradient id="goldGrad" x1="0%" y1="0%" x2="100%" y2="100%">
      <stop offset="0%" style="stop-color:#78716c"/>
      <stop offset="100%" style="stop-color:#a8a29e"/>
    </linearGradient>
  </defs>

  <!-- Background -->
  <rect width="800" height="450" fill="#1c1917"/>

  <!-- Header -->
  <rect x="20" y="20" width="760" height="40" rx="4" fill="#292524"/>
  <text x="40" y="47" font-family="system-ui, sans-serif" font-size="16" font-weight="600" fill="#22d3ee">Combat Meters</text>
  <text x="400" y="47" font-family="system-ui, sans-serif" font-size="14" fill="#a8a29e" text-anchor="middle">Darth Slayer - Ability Breakdown</text>

  <!-- Table header -->
  <g transform="translate(20, 80)">
    <rect width="760" height="35" rx="4" fill="#083344"/>
    <text x="30" y="24" font-family="system-ui, sans-serif" font-size="12" font-weight="600" fill="#22d3ee">ABILITY</text>
    <text x="300" y="24" font-family="system-ui, sans-serif" font-size="12" font-weight="600" fill="#22d3ee">DAMAGE</text>
    <text x="450" y="24" font-family="system-ui, sans-serif" font-size="12" font-weight="600" fill="#22d3ee">HITS</text>
    <text x="550" y="24" font-family="system-ui, sans-serif" font-size="12" font-weight="600" fill="#22d3ee">CRIT %</text>
    <text x="680" y="24" font-family="system-ui, sans-serif" font-size="12" font-weight="600" fill="#22d3ee">DPS</text>
  </g>

  <!-- Table rows -->
  <g transform="translate(20, 125)">
    <!-- Row 1 -->
    <rect width="760" height="40" rx="2" fill="#292524"/>
    <text x="30" y="27" font-family="system-ui, sans-serif" font-size="14" fill="#fafaf9">Force Lightning</text>
    <rect x="280" y="12" width="120" height="16" rx="2" fill="#57534e"/>
    <rect x="280" y="12" width="100" height="16" rx="2" fill="url(#tealGrad)"/>
    <text x="300" y="25" font-family="system-ui, sans-serif" font-size="12" fill="#fafaf9">245,320</text>
    <text x="450" y="27" font-family="system-ui, sans-serif" font-size="14" fill="#a8a29e">127</text>
    <text x="550" y="27" font-family="system-ui, sans-serif" font-size="14" fill="#22d3ee">34.2%</text>
    <text x="680" y="27" font-family="system-ui, sans-serif" font-size="14" fill="#fafaf9">4,120</text>

    <!-- Row 2 -->
    <g transform="translate(0, 50)">
      <rect width="760" height="40" rx="2" fill="#1c1917"/>
      <text x="30" y="27" font-family="system-ui, sans-serif" font-size="14" fill="#fafaf9">Crushing Darkness</text>
      <rect x="280" y="12" width="120" height="16" rx="2" fill="#57534e"/>
      <rect x="280" y="12" width="80" height="16" rx="2" fill="url(#tealGrad)"/>
      <text x="300" y="25" font-family="system-ui, sans-serif" font-size="12" fill="#fafaf9">198,450</text>
      <text x="450" y="27" font-family="system-ui, sans-serif" font-size="14" fill="#a8a29e">89</text>
      <text x="550" y="27" font-family="system-ui, sans-serif" font-size="14" fill="#22d3ee">28.1%</text>
      <text x="680" y="27" font-family="system-ui, sans-serif" font-size="14" fill="#fafaf9">3,340</text>
    </g>

    <!-- Row 3 -->
    <g transform="translate(0, 100)">
      <rect width="760" height="40" rx="2" fill="#292524"/>
      <text x="30" y="27" font-family="system-ui, sans-serif" font-size="14" fill="#fafaf9">Chain Lightning</text>
      <rect x="280" y="12" width="120" height="16" rx="2" fill="#57534e"/>
      <rect x="280" y="12" width="65" height="16" rx="2" fill="url(#tealGrad)"/>
      <text x="300" y="25" font-family="system-ui, sans-serif" font-size="12" fill="#fafaf9">156,780</text>
      <text x="450" y="27" font-family="system-ui, sans-serif" font-size="14" fill="#a8a29e">64</text>
      <text x="550" y="27" font-family="system-ui, sans-serif" font-size="14" fill="#22d3ee">31.5%</text>
      <text x="680" y="27" font-family="system-ui, sans-serif" font-size="14" fill="#fafaf9">2,640</text>
    </g>

    <!-- Row 4 -->
    <g transform="translate(0, 150)">
      <rect width="760" height="40" rx="2" fill="#1c1917"/>
      <text x="30" y="27" font-family="system-ui, sans-serif" font-size="14" fill="#fafaf9">Thundering Blast</text>
      <rect x="280" y="12" width="120" height="16" rx="2" fill="#57534e"/>
      <rect x="280" y="12" width="50" height="16" rx="2" fill="url(#tealGrad)"/>
      <text x="300" y="25" font-family="system-ui, sans-serif" font-size="12" fill="#fafaf9">124,350</text>
      <text x="450" y="27" font-family="system-ui, sans-serif" font-size="14" fill="#a8a29e">45</text>
      <text x="550" y="27" font-family="system-ui, sans-serif" font-size="14" fill="#22d3ee">42.2%</text>
      <text x="680" y="27" font-family="system-ui, sans-serif" font-size="14" fill="#fafaf9">2,090</text>
    </g>
  </g>

  <!-- Footer summary -->
  <rect x="20" y="400" width="760" height="30" rx="4" fill="#292524"/>
  <text x="400" y="420" font-family="system-ui, sans-serif" font-size="12" fill="#78716c" text-anchor="middle">Total Damage: 724,900 | Avg Crit: 33.9% | Encounter Duration: 2:34</text>
</svg>
